<?xml version="1.0" standalone="no"?>
<!DOCTYPE svg PUBLIC "-//W3C//DTD SVG 20010904//EN"
 "http://www.w3.org/TR/2001/REC-SVG-20010904/DTD/svg10.dtd">
<svg version="1.0" xmlns="http://www.w3.org/2000/svg"
 width="617.000000pt" height="617.000000pt" viewBox="0 0 617.000000 617.000000"
 preserveAspectRatio="xMidYMid meet">
<metadata>
Created by potrace 1.14, written by Peter Selinger 2001-2017
</metadata>
<g transform="translate(0.000000,617.000000) scale(0.100000,-0.100000)"
fill="#000000" stroke="none">
<path d="M3915 5952 c-33 -31 -100 -95 -149 -141 l-88 -83 61 -62 c34 -34 58
-65 54 -69 -3 -4 9 -23 27 -42 l34 -35 -34 -35 -34 -35 129 -131 130 -130
-183 -181 -184 -181 62 -62 c40 -41 58 -65 50 -70 -7 -4 2 -18 27 -40 l38 -33
-34 -36 -34 -35 94 -88 c52 -49 120 -113 152 -143 l58 -54 219 219 220 220
218 -218 c119 -119 221 -217 226 -217 4 0 75 64 157 142 l150 141 -33 34 -32
33 34 35 34 35 -59 60 c-32 33 -56 63 -52 67 4 4 -52 67 -125 140 l-133 133
184 184 183 183 -36 28 -37 28 38 39 38 40 -63 57 c-42 38 -59 60 -52 67 7 7
-30 48 -113 127 -68 64 -139 128 -156 143 l-33 27 -219 -219 -219 -219 -218
218 c-119 119 -222 217 -227 217 -6 0 -37 -26 -70 -58z"/>
<path d="M2430 4779 c-58 -4 -134 -12 -170 -19 -200 -37 -412 -142 -523 -258
l-29 -30 -37 42 c-21 22 -47 57 -59 77 -31 51 -105 117 -160 142 -44 20 -65
22 -304 25 l-258 3 0 -1560 0 -1561 49 0 49 0 7 -135 7 -135 378 0 377 0 6 98
c4 53 7 453 7 887 0 671 3 800 15 854 50 211 215 373 442 432 104 27 274 30
358 5 112 -33 222 -102 251 -158 12 -23 14 -265 14 -1543 l0 -1515 49 0 49 0
7 -135 7 -135 408 0 408 0 7 133 c3 72 5 841 3 1707 -5 1725 -1 1612 -63 1835
-31 110 -107 267 -172 357 -171 236 -247 316 -383 407 -208 139 -447 197 -740
180z"/>
</g>
</svg>
